<svg t="1567667226235" class="icon" viewBox="0 0 1024 1024" version="1.1" xmlns="http://www.w3.org/2000/svg" p-id="3168" width="200" height="200"><path d="M512 948.173c-58.868 0-115.993-11.536-169.789-34.289-51.943-21.971-98.586-53.416-138.633-93.463-40.047-40.048-71.493-86.691-93.462-138.633C87.364 627.993 75.827 570.868 75.827 512s11.537-115.993 34.29-169.788c21.969-51.942 53.415-98.585 93.462-138.633 40.047-40.046 86.69-71.492 138.632-93.462 53.795-22.753 110.92-34.29 169.789-34.29 58.868 0 115.993 11.537 169.788 34.29 51.942 21.97 98.585 53.416 138.632 93.462 40.048 40.047 71.493 86.69 93.464 138.633 22.753 53.796 34.289 110.921 34.289 169.789 0 58.868-11.536 115.993-34.289 169.788-21.971 51.942-53.416 98.585-93.463 138.633-40.048 40.047-86.69 71.492-138.633 93.463-53.795 22.752-110.92 34.288-169.788 34.288z m0-807.62c-204.817 0-371.447 166.63-371.447 371.447S307.183 883.448 512 883.448 883.448 716.817 883.448 512c0-204.817-166.631-371.447-371.448-371.447z" p-id="3169" fill="#333333"></path></svg>