<svg t="1567569525841" class="icon" viewBox="0 0 1024 1024" version="1.1" xmlns="http://www.w3.org/2000/svg" p-id="2687" width="200" height="200"><path d="M834.3 75.3H792c-16.6 0-30 13.4-30 30s13.4 30 30 30h42.3c33.1 0 60 26.9 60 60v620c0 33.1-26.9 60-60 60h-640c-33.1 0-60-26.9-60-60v-620c0-33.1 26.9-60 60-60h37c16.6 0 30-13.4 30-30s-13.4-30-30-30h-37c-66.2 0-120 53.8-120 120v620c0 66.2 53.8 120 120 120h640c66.2 0 120-53.8 120-120v-620c0-66.1-53.8-120-120-120z" fill="" p-id="2688"></path><path d="M294.3 344.1h440c16.6 0 30-13.4 30-30s-13.4-30-30-30h-440c-16.6 0-30 13.4-30 30s13.5 30 30 30zM294.3 533.5h440c16.6 0 30-13.4 30-30s-13.4-30-30-30h-440c-16.6 0-30 13.4-30 30s13.5 30 30 30zM294.3 723h440c16.6 0 30-13.4 30-30s-13.4-30-30-30h-440c-16.6 0-30 13.4-30 30s13.5 30 30 30zM426.3 135.3h170c16.6 0 30-13.4 30-30s-13.4-30-30-30h-170c-16.6 0-30 13.4-30 30s13.5 30 30 30z" fill="" p-id="2689"></path></svg>