<svg t="1567569435075" class="icon" viewBox="0 0 1024 1024" version="1.1" xmlns="http://www.w3.org/2000/svg" p-id="1570" width="200" height="200"><path d="M887.2 862.2h-460c-16.6 0-30 13.4-30 30s13.4 30 30 30h460c16.6 0 30-13.4 30-30 0-16.5-13.4-30-30-30zM889.2 689.7h-240c-16.6 0-30 13.4-30 30s13.4 30 30 30h240c16.6 0 30-13.4 30-30 0-16.5-13.4-30-30-30zM758.6 284.7c13.2-17.7 9.4-42.8-8.3-56L589.6 109.6c-17.7-13.2-42.8-9.4-56 8.3L521.8 134l224.9 166.7 11.9-16zM507.2 153.7L146.3 640.6l224.9 166.7 360.9-486.9-224.9-166.7zM384.1 695c-9.9 13.3-28.7 16.1-42 6.2-13.3-9.9-16.1-28.7-6.2-42l220.6-297.6c9.9-13.3 28.7-16.1 42-6.2 13.3 9.9 16.1 28.7 6.2 42L384.1 695zM308.5 833.9L134.1 704.6c-7.8-5.8-19-0.5-19.5 9.2l-9.8 195.5c-0.4 8.7 8.1 15.1 16.3 12.1l184.2-66.3c9.3-3.2 11.1-15.4 3.2-21.2z" fill="" p-id="1571"></path></svg>