<svg t="1567576607764" class="icon" viewBox="0 0 1024 1024" version="1.1" xmlns="http://www.w3.org/2000/svg" p-id="2883" width="200" height="200"><path d="M934.4 504.32c0-118.613333-22.186667-226.133333-58.88-309.76C837.12 105.813333 782.506667 43.52 721.066667 25.6c-30.72-8.533333-126.293333-25.6-207.36-25.6s-157.013333 9.386667-204.8 25.6C183.466667 68.266667 88.746667 275.626667 88.746667 508.586667c0 243.2 75.093333 408.746667 216.746666 477.866666 47.786667 23.04 119.466667 35.84 207.36 35.84 100.693333 0 191.146667-29.013333 209.066667-34.986666 122.88-41.813333 211.626667-243.2 211.626667-478.72 0-1.706667 0.853333-3.413333 0.853333-4.266667z m-255.146667 430.08c-111.786667 0-206.506667-197.12-206.506666-430.08 0-232.96 94.72-430.08 206.506666-430.08 80.213333 0 151.893333 101.546667 186.026667 244.053333 13.653333 58.026667 21.333333 123.733333 21.333333 191.146667-1.706667 230.4-96.426667 424.96-207.36 424.96z m-352.426666 9.386667c-123.733333-60.586667-189.44-211.626667-189.44-435.2C137.386667 274.773333 232.106667 102.4 324.266667 71.68c41.813333-14.506667 114.346667-23.04 189.44-23.04 25.6 0 53.76 1.706667 79.36 4.266667-98.986667 64.853333-168.96 239.786667-168.96 451.413333 0 223.573333 77.653333 407.04 186.88 461.653333-29.013333 5.12-63.146667 8.533333-97.28 8.533334-102.4 0-158.72-17.066667-186.88-30.72z m0 0" p-id="2884"></path><path d="M688.64 278.186667c-68.266667 0-120.32 98.133333-120.32 228.693333s52.053333 228.693333 120.32 228.693333 120.32-98.133333 120.32-228.693333-51.2-228.693333-120.32-228.693333z m0 409.6c-29.866667 0-72.533333-69.12-72.533333-180.906667s41.813333-180.906667 72.533333-180.906667c29.866667 0 72.533333 69.12 72.533333 180.906667s-41.813333 180.906667-72.533333 180.906667z m0 0" p-id="2885"></path></svg>