<svg t="1567576723629" class="icon" viewBox="0 0 1024 1024" version="1.1" xmlns="http://www.w3.org/2000/svg" p-id="3977" width="200" height="200"><path d="M108.468139 952.32c-12.8 0-25.6-5.12-35.84-13.653333-17.92-15.36-27.306667-41.813333-27.306667-78.506667 0-58.026667 4.266667-240.64 5.973333-318.293333L0.948139 529.066667 0.094805 511.146667c0-2.56-3.413333-57.173333 30.72-93.866667 17.066667-17.92 39.253333-29.013333 67.413334-30.72 9.386667-13.653333 32.426667-54.613333 58.88-156.16 1.706667-6.826667 19.626667-72.533333 104.96-114.346667l3.413333-0.853333c4.266667-1.706667 102.4-34.133333 242.346667-40.96 9.386667-0.853333 18.773333-0.853333 28.16-0.853333 122.026667 0 208.213333 37.546667 217.6 41.813333 8.533333 3.413333 82.773333 33.28 111.786666 105.813333l0.853334 2.56c19.626667 69.973333 45.226667 140.8 58.88 163.84 40.96 2.56 87.04 28.16 98.133333 93.013334 4.266667 20.48-1.706667 53.76-39.253333 63.146666h-1.706667l-11.946667 1.706667c5.12 29.866667 11.946667 90.453333 7.68 181.76-1.706667 39.253333-1.706667 69.12-2.56 93.866667-0.853333 64.853333-0.853333 94.72-31.573333 125.44l-7.68 7.68H788.574805c-16.213333 0-58.88-12.8-58.88-71.68v-32.426667H299.614805c-2.56 33.28-12.8 87.893333-47.786666 102.4l-5.12 1.706667H112.734805c-0.853333-1.706667-2.56-1.706667-4.266666-1.706667z m651.946666-157.013333l7.68 7.68c14.506667 14.506667 14.506667 24.746667 14.506667 76.8 0 11.093333 2.56 18.773333 7.68 19.626666h123.733333c8.533333-12.8 9.386667-31.573333 9.386667-80.213333 0-24.746667 0.853333-56.32 2.56-96.426667 5.973333-128-11.093333-190.293333-11.946667-192.853333l-8.533333-28.16 66.56-11.093333-0.853333-2.56c-7.68-46.933333-42.666667-50.346667-53.76-50.346667h-2.56l-10.24 0.853333-7.68-5.973333c-29.013333-21.333333-63.146667-131.413333-81.066667-195.413333-21.333333-51.2-81.066667-74.24-81.92-74.24l-1.706667-0.853334c-3.413333-1.706667-82.773333-37.546667-197.12-37.546666-8.533333 0-17.066667 0-25.6 0.853333-123.733333 5.973333-215.893333 34.133333-226.133333 37.546667-63.146667 32.426667-74.24 76.8-75.093333 79.36C169.054805 392.533333 134.068139 426.666667 127.241472 431.786667l-6.826667 5.973333H111.028139c-18.773333 0-31.573333 5.12-40.96 14.506667-10.24 10.24-14.506667 25.6-16.213334 36.693333l51.2 12.8-0.853333 21.333333c0 2.56-6.826667 267.093333-6.826667 337.92 0 28.16 6.826667 36.693333 8.533334 37.546667l0.853333 0.853333 3.413333-0.853333 1.706667 0.853333h120.32c6.826667-10.24 14.506667-43.52 14.506667-77.653333v-26.453333h513.706666z" p-id="3978"></path><path d="M514.654805 522.24c-118.613333 0-319.146667-40.96-327.68-42.666667l-29.013333-5.973333 78.506667-227.84c2.56-5.973333 27.306667-56.32 139.093333-56.32 7.68 0 15.36 0 23.04 0.853333 116.053333 5.973333 296.96 5.973333 298.666667 5.973334 27.306667 0 83.626667 17.92 103.253333 83.626666 17.92 58.88 51.2 150.186667 58.026667 167.253334l11.093333 29.013333-30.72 5.973333c-7.68 2.56-204.8 40.106667-324.266667 40.106667zM227.081472 433.493333c59.733333 11.093333 200.533333 35.84 287.573333 35.84 87.04 0 225.28-23.04 283.306667-33.28-12.8-34.986667-34.986667-96.426667-48.64-141.653333-13.653333-44.373333-49.493333-46.08-52.906667-46.08h-10.24c-47.786667 0-192.853333-0.853333-290.133333-6.826667-6.826667 0-14.506667-0.853333-20.48-0.853333-69.973333 0-88.746667 22.186667-90.453333 24.746667l-58.026667 168.106666zM266.334805 716.8c-36.693333 0-72.533333-7.68-95.573333-19.626667-20.48-11.093333-34.133333-25.6-39.253333-44.373333-9.386667-32.426667-4.266667-62.293333 14.506666-82.773333 13.653333-14.506667 32.426667-23.04 52.906667-23.04 4.266667 0 9.386667 0 13.653333 0.853333l2.56 0.853333c0.853333 0 87.893333 26.453333 131.413334 55.466667 24.746667 16.213333 34.986667 34.133333 32.426666 54.613333-2.56 22.186667-22.186667 39.253333-58.88 51.2-12.8 4.266667-32.426667 6.826667-53.76 6.826667z m-67.413333-116.906667c-5.973333 0-10.24 1.706667-13.653333 5.12-5.973333 6.826667-7.68 18.773333-3.413334 33.28 0.853333 4.266667 5.973333 8.533333 13.653334 11.946667 16.213333 8.533333 42.666667 13.653333 70.826666 13.653333 15.36 0 29.866667-1.706667 38.4-4.266666 9.386667-3.413333 15.36-5.973333 18.773334-7.68-1.706667-0.853333-3.413333-2.56-5.12-4.266667-33.28-22.186667-107.52-46.08-116.053334-48.64-0.853333 0.853333-1.706667 0.853333-3.413333 0.853333zM755.294805 723.626667c-21.333333 0-40.96-2.56-54.613333-7.68-36.693333-11.946667-55.466667-29.013333-58.026667-51.2-2.56-19.626667 8.533333-38.4 32.426667-54.613334 40.96-27.306667 121.173333-52.906667 130.56-55.466666l2.56-0.853334c5.12-0.853333 9.386667-0.853333 14.506667-0.853333 21.333333 0 40.106667 8.533333 52.906666 23.04 18.773333 20.48 23.893333 51.2 14.506667 82.773333-5.12 18.773333-18.773333 33.28-39.253333 44.373334-23.04 12.8-58.88 20.48-95.573334 20.48z m-57.173333-64.853334c3.413333 1.706667 9.386667 5.12 18.773333 7.68 8.533333 2.56 23.04 4.266667 38.4 4.266667 28.16 0 54.613333-5.12 70.826667-13.653333 7.68-4.266667 11.946667-8.533333 13.653333-11.946667 4.266667-14.506667 2.56-26.453333-3.413333-33.28-3.413333-3.413333-7.68-5.12-13.653333-5.12h-4.266667c-19.626667 5.973333-84.48 28.16-114.346667 48.64-2.56 0.853333-4.266667 1.706667-5.973333 3.413333z" p-id="3979"></path></svg>